HIERARCHY
ROOT Hips
{
	OFFSET 0.000000 0.000000 0.000000
	CHANNELS 6 Xposition Yposition Zposition Zrotation Yrotation Xrotation 
	JOINT LHipJoint
	{
		OFFSET 0.000000 0.000000 0.000000
		CHANNELS 3 Zrotation Yrotation Xrotation
		JOINT LeftUpLeg
		{
			OFFSET 1.363060 -1.794630 0.839290
			CHANNELS 3 Zrotation Yrotation Xrotation
			JOINT LeftLeg
			{
				OFFSET 2.448110 -6.726130 0.000000
				CHANNELS 3 Zrotation Yrotation Xrotation
				JOINT LeftFoot
				{
					OFFSET 2.562200 -7.039590 0.000000
					CHANNELS 3 Zrotation Yrotation Xrotation
					JOINT LeftToeBase
					{
						OFFSET 0.157640 -0.433110 2.322550
						CHANNELS 3 Zrotation Yrotation Xrotation
						End Site
						{
							OFFSET 0.000000 0.000000 0.000000
						}
					}
				}
			}
		}
	}
	JOINT RHipJoint
	{
		OFFSET 0.000000 0.000000 0.000000
		CHANNELS 3 Zrotation Yrotation Xrotation
		JOINT RightUpLeg
		{
			OFFSET -1.305520 -1.794630 0.839290
			CHANNELS 3 Zrotation Yrotation Xrotation
			JOINT RightLeg
			{
				OFFSET -2.542530 -6.985550 0.000000
				CHANNELS 3 Zrotation Yrotation Xrotation
				JOINT RightFoot
				{
					OFFSET -2.568260 -7.056230 0.000000
					CHANNELS 3 Zrotation Yrotation Xrotation
					JOINT RightToeBase
					{
						OFFSET -0.164730 -0.452590 2.363150
						CHANNELS 3 Zrotation Yrotation Xrotation
						End Site
						{
							OFFSET 0.000000 0.000000 0.000000
						}
					}
				}
			}
		}
	}
}
MOTION
Frames: 25
Frame Time: 0.008333
-10.236772 17.058971 -1.748519 24.316821 85.948893 29.608584 -10.074393 1.379488 1.978624 -15.844433 6.753563 -28.879269 -2.364593 0.109060 19.563614 1.904805 10.461885 -7.298963 0.233900 0.000000 -10.042200 10.517524 -4.103759 -1.413874 0.462102 -15.603250 -2.105063 -0.020930 -3.000512 40.362742 -0.095867 7.325278 16.820727 3.039999 0.000000 -81.082600
-10.064172 17.055629 -1.741391 28.459718 86.114987 33.703334 -10.027800 1.414589 1.883184 -16.088071 6.991456 -28.598045 -2.358946 0.157270 20.389164 1.873459 10.321824 -7.410573 0.192100 -0.000000 -9.603800 10.727321 -4.060582 -1.478827 0.018502 -16.144511 -3.555213 -0.224131 -3.136256 43.148127 -0.323070 6.212810 18.177165 2.835599 -0.000000 -79.434500
-9.894681 17.051982 -1.734110 32.414001 86.281293 37.620398 -9.962839 1.457407 1.789636 -16.296742 7.218829 -28.302942 -2.358310 0.202521 21.166793 1.834664 10.111377 -7.575164 0.138600 -0.000000 -9.355600 10.933999 -3.983191 -1.551558 -0.305405 -16.622086 -5.033093 -0.406936 -3.262680 45.873122 -0.560286 4.664013 19.060288 2.351000 -0.000000 -77.259700
-9.728115 17.048373 -1.727010 35.992020 86.422180 41.173475 -9.888726 1.507480 1.701360 -16.463804 7.426052 -27.974863 -2.362648 0.242916 21.863086 1.794038 9.860715 -7.802772 0.073600 -0.000000 -9.290200 11.127897 -3.873207 -1.628798 -0.510244 -17.010304 -6.543860 -0.573131 -3.383584 48.521864 -0.800803 2.743980 19.412663 1.621600 0.000000 -74.652300
-9.564054 17.045137 -1.720640 39.028175 86.536486 44.197044 -9.819545 1.561451 1.621350 -16.575492 7.604981 -27.603679 -2.370594 0.277876 22.464060 1.755223 9.590917 -8.098865 -0.002200 -0.000000 -9.426599 11.295107 -3.737029 -1.709929 -0.590731 -17.307340 -8.078850 -0.723897 -3.500868 51.054126 -1.037481 0.566480 19.204387 0.728899 -0.000000 -71.756900
-9.402157 17.042747 -1.715248 41.387501 86.616061 46.557372 -9.764387 1.615491 1.549524 -16.632213 7.756867 -27.180698 -2.381322 0.305439 22.951810 1.722179 9.329388 -8.459254 -0.086600 -0.000000 -9.750800 11.428341 -3.582131 -1.789513 -0.552179 -17.498416 -9.639792 -0.860149 -3.615921 53.439545 -1.264604 -1.729105 18.446961 -0.217000 0.000000 -68.668300
-9.241956 17.041637 -1.710958 42.973826 86.659601 48.158887 -9.729898 1.666352 1.484747 -16.635637 7.888506 -26.702146 -2.393624 0.324284 23.317278 1.697569 9.098180 -8.873177 -0.177000 -0.000001 -10.241500 11.523117 -3.416661 -1.861517 -0.400653 -17.574267 -11.223652 -0.981012 -3.728237 55.642072 -1.475824 -3.990937 17.186782 -1.100200 0.000000 -65.460700
-9.083039 17.042229 -1.707806 43.750485 86.668948 48.964849 -9.719014 1.712035 1.425016 -16.589946 8.010288 -26.169468 -2.406403 0.333776 23.557759 1.682738 8.912547 -9.324909 -0.270800 0.000000 -10.860200 11.578759 -3.247732 -1.920430 -0.146036 -17.532311 -12.823817 -1.084182 -3.835821 57.626576 -1.663828 -6.072503 15.498846 -1.820400 0.000000 -62.158700
-8.925149 17.044885 -1.705543 43.719044 86.641099 48.972948 -9.731005 1.752806 1.366988 -16.503807 8.138884 -25.582272 -2.418991 0.333925 23.671544 1.678033 8.783618 -9.792699 -0.365200 -0.000000 -11.568700 11.598250 -3.079864 -1.959539 0.197182 -17.364995 -14.428653 -1.167288 -3.934988 59.360313 -1.822562 -7.860770 13.493799 -2.316100 -0.000000 -58.904100
-8.767839 17.049845 -1.704017 42.994647 86.583165 48.297177 -9.762894 1.789771 1.308282 -16.382971 8.285332 -24.946099 -2.430851 0.325713 23.665696 1.682158 8.710877 -10.256068 -0.457800 -0.000000 -12.306700 11.586318 -2.916194 -1.976863 0.613641 -17.085924 -16.023527 -1.226449 -4.022048 60.814917 -1.944170 -9.264706 11.279691 -2.562800 0.000001 -55.658000
-8.610838 17.057274 -1.702875 41.727465 86.498903 47.083478 -9.809924 1.825384 1.246574 -16.234894 8.462063 -24.263775 -2.441947 0.310375 23.546291 1.692831 8.688304 -10.692352 -0.545900 0.000000 -13.029400 11.549243 -2.757850 -1.970451 1.085911 -16.707322 -17.590773 -1.258711 -4.093189 61.968661 -2.023677 -10.241408 8.978347 -2.580100 0.000001 -52.480500
-8.454041 17.067120 -1.701730 40.125284 86.394723 45.532807 -9.866013 1.862063 1.179183 -16.067386 8.678315 -23.533733 -2.452576 0.289155 23.319265 1.706918 8.703816 -11.081191 -0.626300 -0.000001 -13.703900 11.494398 -2.604523 -1.940828 1.594520 -16.246792 -19.109346 -1.262284 -4.145626 62.805572 -2.059580 -10.791903 6.716352 -2.421000 0.000000 -49.538500
-8.297267 17.079243 -1.700182 38.414662 86.283193 43.867420 -9.926063 1.901327 1.105372 -15.884318 8.935633 -22.756928 -2.462905 0.263188 22.993168 1.720705 8.739894 -11.406006 -0.696100 -0.000001 -14.314400 11.427714 -2.456051 -1.891016 2.124818 -15.731004 -20.562543 -1.236554 -4.178151 63.318873 -2.053369 -10.950912 4.598252 -2.151800 -0.000000 -46.912501
-8.140415 17.093338 -1.697927 36.797338 86.179241 42.284924 -9.986219 1.943844 1.025315 -15.688473 9.230616 -21.932418 -2.473003 0.233257 22.575744 1.730636 8.778274 -11.654840 -0.752200 -0.000000 -14.865700 11.353590 -2.312263 -1.825487 2.665448 -15.188630 -21.936604 -1.183029 -4.190867 63.510156 -2.011181 -10.787130 2.712325 -1.839200 -0.000000 -44.735700
-7.983479 17.108998 -1.694646 35.443959 86.098372 40.951521 -10.043869 1.989371 0.940046 -15.480630 9.554613 -21.057109 -2.482843 0.199764 22.073528 1.733655 8.801505 -11.821977 -0.792600 -0.000000 -15.378800 11.274974 -2.173031 -1.749729 3.208148 -14.647246 -23.221181 -1.105128 -4.185048 63.389777 -1.942979 -10.392226 1.116684 -1.536800 -0.000001 -43.123400
-7.826323 17.125758 -1.690153 34.468221 86.057795 39.982984 -10.098377 2.037068 0.853057 -15.259332 9.892659 -20.137017 -2.492090 0.163135 21.497018 1.727680 8.795208 -11.907168 -0.816100 0.000000 -15.888100 11.192226 -2.038413 -1.669358 3.753083 -14.134877 -24.418037 -1.007028 -4.162404 62.976639 -1.860986 -9.867743 -0.169499 -1.277500 -0.000000 -42.114001
-7.668978 17.143061 -1.684326 33.952144 86.070066 39.460253 -10.149379 2.085958 0.767429 -15.023138 10.229121 -19.172201 -2.500335 0.123442 20.852813 1.711877 8.750935 -11.915958 -0.823000 -0.000000 -16.431700 11.105381 -1.908381 -1.589793 4.300081 -13.672143 -25.528106 -0.893154 -4.125179 62.296034 -1.778371 -9.315110 -1.166299 -1.074500 0.000000 -41.660200
-7.511350 17.160409 -1.677044 33.956462 86.144837 39.448592 -10.196998 2.134934 0.686891 -14.769695 10.547520 -18.169767 -2.507056 0.080839 20.150388 1.686432 8.664897 -11.857095 -0.814700 -0.000000 -17.047500 11.013539 -1.782895 -1.515445 4.853768 -13.275049 -26.560940 -0.766753 -4.075583 61.376654 -1.707382 -8.823597 -1.927946 -0.926800 0.000001 -41.613100
-7.353624 17.177169 -1.668249 34.533811 86.285497 39.998109 -10.240998 2.183023 0.613416 -14.496366 10.835379 -17.126791 -2.511407 0.035293 19.394507 1.652703 8.540627 -11.741879 -0.793900 0.000000 -17.767000 10.916382 -1.662138 -1.449073 5.415219 -12.947237 -27.517910 -0.630218 -4.015577 60.245972 -1.658477 -8.464736 -2.525450 -0.826200 0.000000 -41.797900
-7.195489 17.193089 -1.657969 35.756800 86.493897 41.193362 -10.280909 2.229391 0.550706 -14.203170 11.081866 -16.063430 -2.513010 -0.012969 18.599101 1.612258 8.381869 -11.581247 -0.762900 0.000000 -18.609200 10.812827 -1.546492 -1.390856 5.992362 -12.693008 -28.418521 -0.483729 -3.946461 58.927872 -1.638975 -8.282783 -3.036703 -0.761500 0.000000 -42.006700
-7.037237 17.207666 -1.646198 37.712180 86.763399 43.118072 -10.315483 2.273414 0.497856 -13.887748 11.285716 -14.977311 -2.511066 -0.063765 17.768755 1.567278 8.198702 -11.385583 -0.724799 0.000000 -19.582000 10.703589 -1.436261 -1.339517 6.584383 -12.499231 -29.260500 -0.327556 -3.868776 57.438157 -1.653910 -8.300865 -3.525810 -0.722200 0.000000 -42.096900
-6.878574 17.220789 -1.632961 40.564027 87.085592 45.945910 -10.341864 2.315120 0.454799 -13.552622 11.450295 -13.886572 -2.505723 -0.116708 16.915221 1.519465 7.998298 -11.162155 -0.681600 0.000000 -20.670000 10.590314 -1.331524 -1.291611 7.193129 -12.357080 -30.056241 -0.160593 -3.782358 55.785874 -1.704663 -8.512298 -4.040038 -0.697600 0.000000 -41.948100
-6.719589 17.232267 -1.618267 44.527334 87.446667 49.892418 -10.355854 2.355701 0.418978 -13.198753 11.587413 -12.797851 -2.497238 -0.171067 16.046392 1.470372 7.788677 -10.916752 -0.635100 -0.000000 -21.845500 10.476842 -1.231801 -1.242366 7.815887 -12.249464 -30.803837 0.017516 -3.685785 53.972457 -1.790190 -8.892386 -4.601399 -0.678700 -0.000001 -41.502499
-6.560243 17.242011 -1.602123 49.891191 87.828413 55.248923 -10.351786 2.397887 0.386827 -12.828307 11.713433 -11.720080 -2.486644 -0.225457 15.170309 1.421091 7.575691 -10.652852 -0.586300 -0.000000 -23.068900 10.368919 -1.134533 -1.186982 8.449347 -12.158943 -31.500275 0.206277 -3.576240 51.994225 -1.906664 -9.400756 -5.206964 -0.659000 0.000000 -40.753600
-6.400509 17.249968 -1.584486 56.954424 88.207428 62.314256 -10.324336 2.446642 0.354779 -12.444253 11.848894 -10.661827 -2.475730 -0.277591 14.293930 1.372302 7.363100 -10.372533 -0.536000 0.000000 -24.298100 10.273103 -1.034673 -1.121114 9.088714 -12.068676 -32.137474 0.403399 -3.448925 49.844823 -2.047801 -9.989380 -5.831259 -0.635900 -0.000000 -39.751100
